<svg xmlns="http://www.w3.org/2000/svg" version="1.1" xmlns:xlink="http://www.w3.org/1999/xlink" width="34" height="34"><svg xmlns="http://www.w3.org/2000/svg" version="1.1" xmlns:xlink="http://www.w3.org/1999/xlink" width="34" height="34"><svg width="34" height="34" viewBox="0 0 34 34" fill="none" xmlns="http://www.w3.org/2000/svg">
<path opacity="0.9" d="M19.5 0H12.5C11.6716 0 11 0.671573 11 1.5V8.5C11 9.32843 11.6716 10 12.5 10H19.5C20.3284 10 21 9.32843 21 8.5V1.5C21 0.671573 20.3284 0 19.5 0Z" fill="#FFC53D"></path>
<path opacity="0.7" d="M8.5 12H1.5C0.671573 12 0 12.6716 0 13.5V20.5C0 21.3284 0.671573 22 1.5 22H8.5C9.32843 22 10 21.3284 10 20.5V13.5C10 12.6716 9.32843 12 8.5 12Z" fill="#26997B"></path>
<path opacity="0.85" d="M20.5 12H13.5C12.6716 12 12 12.6716 12 13.5V20.5C12 21.3284 12.6716 22 13.5 22H20.5C21.3284 22 22 21.3284 22 20.5V13.5C22 12.6716 21.3284 12 20.5 12Z" fill="#26997B"></path>
<path d="M8.5 24H1.5C0.671573 24 0 24.6716 0 25.5V32.5C0 33.3284 0.671573 34 1.5 34H8.5C9.32843 34 10 33.3284 10 32.5V25.5C10 24.6716 9.32843 24 8.5 24Z" fill="#DC3E42"></path>
<path d="M20.5 24H13.5C12.6716 24 12 24.6716 12 25.5V32.5C12 33.3284 12.6716 34 13.5 34H20.5C21.3284 34 22 33.3284 22 32.5V25.5C22 24.6716 21.3284 24 20.5 24Z" fill="#DC3E42"></path>
<path opacity="0.9" d="M32.5 24H25.5C24.6716 24 24 24.6716 24 25.5V32.5C24 33.3284 24.6716 34 25.5 34H32.5C33.3284 34 34 33.3284 34 32.5V25.5C34 24.6716 33.3284 24 32.5 24Z" fill="#DC3E42"></path>
</svg></svg><style>@media (prefers-color-scheme: light) { :root { filter: none; } }
@media (prefers-color-scheme: dark) { :root { filter: none; } }
</style></svg>